<svg xmlns="http://www.w3.org/2000/svg" viewBox="0 0 1024 1025"><defs><style>.cls-1{fill:none;}.cls-2{fill:#666;}.cls-3{fill:#999;}.cls-4{fill:#b3b3b3;}.cls-5{fill:#4d4d4d;}.cls-6{fill:#ccc;}.cls-7{fill:gray;}</style></defs><title>DummyAvatar</title><g id="Ebene_10" data-name="Ebene 10"><rect class="cls-1" width="1024" height="1025"/></g><g id="Ebene_4" data-name="Ebene 4"><g id="Ebene_3" data-name="Ebene 3"><polygon class="cls-2" points="177 1025 285 947 296 972 312.59 1024 177 1025"/><path class="cls-3" d="M930.5,1023.5l17-48-12-36s-1-14,3-17-15-24-16-33-7-39-11-42,7-26,7-26l-4-26,12-25,10-8s-18-81-41-107-138-70-138-70l3,44-123,80-59,41-66,68-112,55-83,43-33,35,23,72H738.13l17.37-88,6-4,30,49,6,13,4,17,5.14,13Z" transform="translate(0.5 0.5)"/></g><polygon class="cls-2" points="652 743 501 890 501 979 530.74 1024 739 1024 748 953 751.93 840.54 669 780 652 743"/><polygon class="cls-2" points="464 888 470 984 448.07 1024 381.48 1024 381.48 883.5 435.62 857 464 888"/><polygon class="cls-4" points="650.5 805.5 676.5 824.5 666.5 947.5 691.5 994.5 707.5 989.5 703.5 1024 581.25 1024 542.5 947.5 650.5 805.5"/><polygon class="cls-4" points="438 942 391.95 878.38 318 917 285 952 308 1024 401.58 1024 438 942"/><circle class="cls-5" cx="409" cy="949" r="12"/><circle class="cls-5" cx="572.5" cy="949.5" r="12"/><circle class="cls-5" cx="646.5" cy="849.5" r="12"/><circle class="cls-5" cx="671.5" cy="1006.5" r="12"/><g id="Ebene_2" data-name="Ebene 2"><path class="cls-2" d="M775,630l73,54,28,50,60,28-10,8-43-8-28-12-9-1,2,31-11-31-5-41S777,652,775,630Z" transform="translate(0.5 0.5)"/><polygon class="cls-2" points="662 717 735 668 720 705 676 736 662 717"/><polygon class="cls-2" points="685 748 722 722 711 757 699 764 685 748"/><polygon class="cls-2" points="844 824 871 797 915 797 919 824 906 815 844 824"/><path class="cls-2" d="M886.5,880.5l35.08,2.77S916.5,851.5,911.5,847.5c-3.37-2.7,3.1-17,3.1-17h-7.1Z" transform="translate(0.5 0.5)"/><path class="cls-2" d="M921.5,922.5l-35,30,48.93-18.83s.07-10.17,3.07-11.17a1.88,1.88,0,0,0,0-3C933.82,919.5,921.5,922.5,921.5,922.5Z" transform="translate(0.5 0.5)"/><polygon class="cls-2" points="823 909 851 911 874 899 853 933 832 942 823 909"/><polygon class="cls-2" points="774 764 778 725 834 778 834 857 820 797 774 764"/><polygon class="cls-2" points="758 829 707 926 727 984 750 984 764 908 756 866 758 829"/><polygon class="cls-2" points="780 980 789 986 865 959 804 971 809 944 768 908 764 942 780 980"/><polygon class="cls-2" points="794 991 792 1010 807.14 1024 879.71 1024 893 1014 863 964 794 991"/><polygon class="cls-2" points="761 862 783 894 783 904 795 904 815 884 815 851 764 819 761 862"/></g></g><g id="Ebene_5" data-name="Ebene 5"><path class="cls-6" d="M725.5,544.5s8.14,8.51,5,14c-4,7,27.92,17.41,31.5,21.5,7,8,7,44,0,50s-77,64-99,73-91,59-147,114-111,50-154,84-152,123-152,123H146s-30-42-22-112,15-42,14-84-15-89-2-110,67-45,81-61,47-52,78-71,65-37,74-42,32-84,23-116-17-91-11-120,15-70,23-79,49-52,60-55,144-18,151-13,37,43,57,88,34,67,34,82-8.33,69.86-12.5,92.5c-7,38,15,58,10,67s1,19,7,22-3,6-4,15S725.5,544.5,725.5,544.5Z" transform="translate(0.5 0.5)"/></g><g id="Ebene_6" data-name="Ebene 6"><path class="cls-7" d="M721.59,542.72,710,575,491,719l-11,14L722,586l10.51-22.38s1.28-7.05-2.62-12.84" transform="translate(0.5 0.5)"/><polygon class="cls-7" points="711 513 687 541 551 655 545 664 427 733 478 710 550 669 696 547 707.31 526.25 713.03 515.54 711 513"/><polygon class="cls-7" points="579 612 668 491 614 586 579 612"/><polygon class="cls-7" points="378.5 528.5 379.5 549.5 410 612 388.5 575.5 379.5 563.5 374.5 548.5 378.5 528.5"/><path class="cls-7" d="M384.5,860.5s45-71,82-100,62-37,62-37-46,27-72,53S384.5,860.5,384.5,860.5Z" transform="translate(0.5 0.5)"/></g><g id="Ebene_9" data-name="Ebene 9"><path class="cls-5" d="M397.5,380.5l12-73,27-47s57-35,76-30,91,28,98,40,39,110,39,110l6-36v114h6L508,640.73l-20.06,12.76-36.44-129-3-33Z" transform="translate(0.5 0.5)"/><polygon class="cls-7" points="437 619 467 676 508.5 641.5 517.5 630.5 477.5 657.5 437 619"/></g><g id="Ebene_7" data-name="Ebene 7"><path class="cls-3" d="M478,524a153.28,153.28,0,0,0,41,8c22,1,55-4,55-4l59-136L603,279s-35-12-63-14-71,8-71,8L422,374Z" transform="translate(0.5 0.5)"/></g><g id="Ebene_8" data-name="Ebene 8"><circle class="cls-5" cx="474.5" cy="336.5" r="15"/><path class="cls-6" d="M463,335s-1-6,3-9a12.37,12.37,0,0,1,9-2s-5,1-7,3S463,335,463,335Z" transform="translate(0.5 0.5)"/><circle class="cls-5" cx="463.5" cy="407.5" r="15"/><path class="cls-6" d="M452,406s-1-6,3-9a12.37,12.37,0,0,1,9-2s-5,1-7,3S452,406,452,406Z" transform="translate(0.5 0.5)"/><circle class="cls-5" cx="567.5" cy="344.5" r="15"/><path class="cls-6" d="M556,343s-1-6,3-9a12.37,12.37,0,0,1,9-2s-5,1-7,3S556,343,556,343Z" transform="translate(0.5 0.5)"/><circle class="cls-5" cx="573.5" cy="421.5" r="15"/><path class="cls-6" d="M562,420s-1-6,3-9a12.37,12.37,0,0,1,9-2s-5,1-7,3S562,420,562,420Z" transform="translate(0.5 0.5)"/><circle class="cls-5" cx="493.5" cy="491.5" r="15"/><path class="cls-6" d="M482,490s-1-6,3-9a12.37,12.37,0,0,1,9-2s-5,1-7,3S482,490,482,490Z" transform="translate(0.5 0.5)"/><circle class="cls-5" cx="545.5" cy="494.5" r="15"/><path class="cls-6" d="M534,493s-1-6,3-9a12.37,12.37,0,0,1,9-2s-5,1-7,3S534,493,534,493Z" transform="translate(0.5 0.5)"/></g></svg>